G04 ================== begin FILE IDENTIFICATION RECORD ==================*
G04 Layout Name:  C:/Users/user/Desktop/work/DA_CONVERTOR/allegro/DA_CONVERTER.brd*
G04 Film Name:    drillDraw*
G04 File Format:  Gerber RS274X*
G04 File Origin:  Cadence Allegro 17.2-P019*
G04 Origin Date:  Wed Jul 31 17:04:23 2019*
G04 *
G04 Layer:  MANUFACTURING/NCLEGEND-1-2*
G04 Layer:  BOARD GEOMETRY/DESIGN_OUTLINE*
G04 *
G04 Offset:    (0.000 0.000)*
G04 Mirror:    No*
G04 Mode:      Positive*
G04 Rotation:  0*
G04 FullContactRelief:  No*
G04 UndefLineWidth:     0.100*
G04 ================== end FILE IDENTIFICATION RECORD ====================*
%FSLAX25Y25*MOMM*%
%IR0*IPPOS*OFA0.00000B0.00000*MIA0B0*SFA1.00000B1.00000*%
%AMMACRO13*
1,1,.1,.3175,0.0*
20,1,.1,.3175,0.0,-.3175,0.0,0.0*
1,1,.1,-.3175,0.0*
1,1,.1,0.0,.3175*
20,1,.1,0.0,.3175,0.0,-.3175,0.0*
1,1,.1,0.0,-.3175*
%
%ADD13MACRO13*%
%AMMACRO11*
1,1,.1,-.508,.3175*
20,1,.1,-.508,.3175,-.500282,.405713,0.0*
1,1,.1,-.500282,.405713*
20,1,.1,-.500282,.405713,-.477364,.491246,0.0*
1,1,.1,-.477364,.491246*
20,1,.1,-.477364,.491246,-.439941,.5715,0.0*
1,1,.1,-.439941,.5715*
20,1,.1,-.439941,.5715,-.389151,.644036,0.0*
1,1,.1,-.389151,.644036*
20,1,.1,-.389151,.644036,-.326536,.706651,0.0*
1,1,.1,-.326536,.706651*
20,1,.1,-.326536,.706651,-.254,.757441,0.0*
1,1,.1,-.254,.757441*
20,1,.1,-.254,.757441,-.173746,.794864,0.0*
1,1,.1,-.173746,.794864*
20,1,.1,-.173746,.794864,-.088213,.817782,0.0*
1,1,.1,-.088213,.817782*
20,1,.1,-.088213,.817782,0.0,.8255,0.0*
1,1,.1,0.0,.8255*
20,1,.1,0.0,.8255,.088213,.817782,0.0*
1,1,.1,.088213,.817782*
20,1,.1,.088213,.817782,.173746,.794864,0.0*
1,1,.1,.173746,.794864*
20,1,.1,.173746,.794864,.254,.757441,0.0*
1,1,.1,.254,.757441*
20,1,.1,.254,.757441,.326536,.706651,0.0*
1,1,.1,.326536,.706651*
20,1,.1,.326536,.706651,.389151,.644036,0.0*
1,1,.1,.389151,.644036*
20,1,.1,.389151,.644036,.439941,.5715,0.0*
1,1,.1,.439941,.5715*
20,1,.1,.439941,.5715,.477364,.491246,0.0*
1,1,.1,.477364,.491246*
20,1,.1,.477364,.491246,.500282,.405713,0.0*
1,1,.1,.500282,.405713*
20,1,.1,.500282,.405713,.508,.3175,0.0*
1,1,.1,.508,.3175*
20,1,.1,.508,.3175,.508,-.3175,0.0*
1,1,.1,.508,-.3175*
20,1,.1,.508,-.3175,.500282,-.405713,0.0*
1,1,.1,.500282,-.405713*
20,1,.1,.500282,-.405713,.477364,-.491246,0.0*
1,1,.1,.477364,-.491246*
20,1,.1,.477364,-.491246,.439941,-.5715,0.0*
1,1,.1,.439941,-.5715*
20,1,.1,.439941,-.5715,.389151,-.644036,0.0*
1,1,.1,.389151,-.644036*
20,1,.1,.389151,-.644036,.326536,-.706651,0.0*
1,1,.1,.326536,-.706651*
20,1,.1,.326536,-.706651,.254,-.757441,0.0*
1,1,.1,.254,-.757441*
20,1,.1,.254,-.757441,.173746,-.794864,0.0*
1,1,.1,.173746,-.794864*
20,1,.1,.173746,-.794864,.088213,-.817782,0.0*
1,1,.1,.088213,-.817782*
20,1,.1,.088213,-.817782,0.0,-.8255,0.0*
1,1,.1,0.0,-.8255*
20,1,.1,0.0,-.8255,-.088213,-.817782,0.0*
1,1,.1,-.088213,-.817782*
20,1,.1,-.088213,-.817782,-.173746,-.794864,0.0*
1,1,.1,-.173746,-.794864*
20,1,.1,-.173746,-.794864,-.254,-.757441,0.0*
1,1,.1,-.254,-.757441*
20,1,.1,-.254,-.757441,-.326536,-.706651,0.0*
1,1,.1,-.326536,-.706651*
20,1,.1,-.326536,-.706651,-.389151,-.644036,0.0*
1,1,.1,-.389151,-.644036*
20,1,.1,-.389151,-.644036,-.439941,-.5715,0.0*
1,1,.1,-.439941,-.5715*
20,1,.1,-.439941,-.5715,-.477364,-.491246,0.0*
1,1,.1,-.477364,-.491246*
20,1,.1,-.477364,-.491246,-.500282,-.405713,0.0*
1,1,.1,-.500282,-.405713*
20,1,.1,-.500282,-.405713,-.508,-.3175,0.0*
1,1,.1,-.508,-.3175*
20,1,.1,-.508,-.3175,-.508,.3175,0.0*
1,1,.1,-.508,.3175*
%
%ADD11MACRO11*%
%AMMACRO12*
1,1,.1,.635,0.0*
20,1,.1,.635,0.0,.3175,.549926,0.0*
1,1,.1,.3175,.549926*
20,1,.1,.3175,.549926,-.3175,.549926,0.0*
1,1,.1,-.3175,.549926*
20,1,.1,-.3175,.549926,-.635,0.0,0.0*
1,1,.1,-.635,0.0*
20,1,.1,-.635,0.0,-.3175,-.549926,0.0*
1,1,.1,-.3175,-.549926*
20,1,.1,-.3175,-.549926,.3175,-.549926,0.0*
1,1,.1,.3175,-.549926*
20,1,.1,.3175,-.549926,.635,0.0,0.0*
1,1,.1,.635,0.0*
%
%ADD12MACRO12*%
%AMMACRO10*
1,1,.1,-.666,-.952*
20,1,.1,-.666,-.952,.667,.953,0.0*
1,1,.1,.667,.953*
1,1,.1,-.666,.953*
20,1,.1,-.666,.953,.667,-.952,0.0*
1,1,.1,.667,-.952*
%
%ADD10MACRO10*%
%ADD14C,.1*%
G75*
%LPD*%
G75*
G54D10*
X500000Y500000D03*
Y6500000D03*
X202900Y8319400D03*
X9500000Y500000D03*
Y6500000D03*
G54D11*
X202900Y8605100D03*
X1720000Y1320000D03*
Y2336000D03*
X1740000Y2980000D03*
Y3996000D03*
X2500000Y5780000D03*
X4080000Y4780000D03*
X3516000Y5780000D03*
X4080000Y5796000D03*
X4700000Y1324000D03*
Y2340000D03*
Y2924000D03*
Y3940000D03*
X4720000Y4764000D03*
Y5780000D03*
X5720000Y1480000D03*
X5724000Y2080000D03*
X5360000Y2900000D03*
Y3916000D03*
Y4760000D03*
Y5776000D03*
X5960000Y2924000D03*
Y3940000D03*
X6736000Y1480000D03*
X6740000Y2080000D03*
X6580000Y2944000D03*
Y3960000D03*
X7520000Y1560000D03*
X7400000Y2944000D03*
Y3960000D03*
X8536000Y1560000D03*
X8740000Y2940000D03*
X8080000Y2964000D03*
X8740000Y3956000D03*
X8080000Y3980000D03*
G54D12*
X202900Y8890900D03*
X500000Y3246000D03*
Y2992000D03*
Y2738000D03*
Y3500000D03*
X1800000Y5274000D03*
Y5020000D03*
X2560000Y1458000D03*
Y1712000D03*
Y1966000D03*
Y2220000D03*
X2580000Y3466000D03*
Y3212000D03*
Y2958000D03*
Y3720000D03*
X2560000Y4498000D03*
Y4752000D03*
Y5006000D03*
Y5260000D03*
X3322000Y1458000D03*
Y1712000D03*
Y1966000D03*
Y2220000D03*
X3342000Y3466000D03*
Y3212000D03*
Y2958000D03*
Y3720000D03*
X3322000Y4498000D03*
Y4752000D03*
Y5006000D03*
Y5260000D03*
X7136000Y4958000D03*
Y5720000D03*
X7390000Y4958000D03*
X7644000D03*
X7898000D03*
X7390000Y5720000D03*
X7644000D03*
X7898000D03*
X8152000Y4958000D03*
X8406000D03*
X8660000D03*
X8152000Y5720000D03*
X8406000D03*
X8660000D03*
X9500000Y3254000D03*
Y3000000D03*
G54D13*
X202900Y9176600D03*
X6020000Y4745600D03*
Y5660000D03*
X6620000Y4860000D03*
Y5774400D03*
G54D14*
G01X0Y0D02*
Y7000000D01*
X10000000D01*
Y0D01*
X0D01*
G01Y8462200D02*
X2237000D01*
G01X0Y8176500D02*
Y10223500D01*
X2237000D01*
Y8176500D01*
X0D01*
G01Y8748000D02*
X2237000D01*
G01X0Y9033800D02*
X2237000D01*
G01X0Y9319500D02*
X2237000D01*
G01X50500Y9351200D02*
Y9414700D01*
X76300D01*
G01X66800Y9384000D02*
X50500D01*
G01X111100Y9414700D02*
X127300D01*
G01X119200D02*
Y9351200D01*
G01X111100D02*
X127300D01*
G01X179100Y9382900D02*
X192600D01*
Y9363900D01*
X188500Y9357500D01*
X183800Y9353300D01*
X177000Y9351200D01*
X170300Y9353300D01*
X165500Y9357500D01*
X161500Y9363900D01*
X158800Y9371300D01*
X157400Y9379800D01*
Y9387200D01*
X158800Y9393500D01*
X161500Y9400900D01*
X165500Y9407300D01*
X169600Y9411500D01*
X175000Y9414700D01*
X179700D01*
X185100Y9412600D01*
X189200Y9408300D01*
G01X215900Y9414700D02*
Y9369200D01*
X218600Y9359700D01*
X224000Y9353300D01*
X230800Y9351200D01*
X237600Y9353300D01*
X243000Y9359700D01*
X245700Y9369200D01*
Y9414700D01*
G01X273100Y9351200D02*
Y9414700D01*
X290000D01*
X295400Y9411500D01*
X298800Y9407300D01*
X300100Y9398800D01*
X298800Y9390400D01*
X294700Y9385100D01*
X290000Y9381900D01*
X273100D01*
G01X290000D02*
X300100Y9351200D01*
G01X355900D02*
X328900D01*
Y9414700D01*
X355900D01*
G01X345100Y9384000D02*
X328900D01*
G01X0Y9446500D02*
X2237000D01*
G01X0Y9573500D02*
X2237000D01*
G01X733300Y8300300D02*
X737400Y8292900D01*
X742800Y8288700D01*
X748900Y8287600D01*
X754300Y8288700D01*
X759700Y8293900D01*
X763100Y8300300D01*
X763800Y8306600D01*
X762400Y8314100D01*
X757700Y8319300D01*
X752900Y8321500D01*
X746800D01*
G01X752900D02*
X757000Y8324600D01*
X760400Y8329900D01*
X761700Y8336300D01*
X760400Y8342600D01*
X757000Y8347900D01*
X750900Y8351100D01*
X744800Y8350000D01*
X738700Y8345800D01*
G01X804000Y8285500D02*
X802600Y8286500D01*
Y8288700D01*
X804000Y8289700D01*
X805400Y8288700D01*
Y8286500D01*
X804000Y8285500D01*
G01X859800Y8287600D02*
Y8351100D01*
X851700Y8338400D01*
G01Y8287600D02*
X867900D01*
G01X914200D02*
X915600Y8301400D01*
X917600Y8313000D01*
X920300Y8323600D01*
X923700Y8335200D01*
X929100Y8351100D01*
X902100D01*
G01X956500Y8297100D02*
X960600Y8291800D01*
X965300Y8288700D01*
X971400Y8287600D01*
X977500Y8289700D01*
X982200Y8293900D01*
X985600Y8301400D01*
X986300Y8309800D01*
X984900Y8318300D01*
X981500Y8323600D01*
X976800Y8327800D01*
X972100Y8328900D01*
X967300Y8327800D01*
X961300Y8323600D01*
X963300Y8351100D01*
X981500D01*
G01X748200Y8573400D02*
Y8636900D01*
X740100Y8624200D01*
G01Y8573400D02*
X756300D01*
G01X804000Y8571300D02*
X802600Y8572300D01*
Y8574500D01*
X804000Y8575500D01*
X805400Y8574500D01*
Y8572300D01*
X804000Y8571300D01*
G01X859800Y8636900D02*
X854400Y8634800D01*
X850300Y8629500D01*
X847600Y8623100D01*
X845600Y8614700D01*
X844900Y8605100D01*
X845600Y8595600D01*
X847600Y8587200D01*
X850300Y8580800D01*
X854400Y8575500D01*
X859800Y8573400D01*
X865200Y8575500D01*
X869300Y8580800D01*
X872000Y8587200D01*
X874000Y8595600D01*
X874700Y8605100D01*
X874000Y8614700D01*
X872000Y8623100D01*
X869300Y8629500D01*
X865200Y8634800D01*
X859800Y8636900D01*
G01X902700Y8599900D02*
X907500Y8607300D01*
X911500Y8611500D01*
X917000Y8613600D01*
X921700Y8611500D01*
X925100Y8607300D01*
X927800Y8600900D01*
X928500Y8593500D01*
X927800Y8587200D01*
X925100Y8580800D01*
X921000Y8575500D01*
X916300Y8573400D01*
X910900Y8575500D01*
X906100Y8581900D01*
X903400Y8591400D01*
X902700Y8602000D01*
X904100Y8615700D01*
X906100Y8623100D01*
X909500Y8630500D01*
X914200Y8635800D01*
X919000Y8636900D01*
X923700Y8634800D01*
X927100Y8629500D01*
G01X970000Y8573400D02*
X971400Y8587200D01*
X973400Y8598800D01*
X976100Y8609400D01*
X979500Y8621000D01*
X984900Y8636900D01*
X957900D01*
G01X405800Y9446500D02*
Y8176500D01*
G01X748200Y8922600D02*
X742800Y8920500D01*
X738700Y8915200D01*
X736000Y8908800D01*
X734000Y8900400D01*
X733300Y8890800D01*
X734000Y8881300D01*
X736000Y8872900D01*
X738700Y8866500D01*
X742800Y8861200D01*
X748200Y8859100D01*
X753600Y8861200D01*
X757700Y8866500D01*
X760400Y8872900D01*
X762400Y8881300D01*
X763100Y8890800D01*
X762400Y8900400D01*
X760400Y8908800D01*
X757700Y8915200D01*
X753600Y8920500D01*
X748200Y8922600D01*
G01X804000Y8857000D02*
X802600Y8858000D01*
Y8860200D01*
X804000Y8861200D01*
X805400Y8860200D01*
Y8858000D01*
X804000Y8857000D01*
G01X848300Y8866500D02*
X853000Y8861200D01*
X858400Y8859100D01*
X863900Y8861200D01*
X868600Y8867600D01*
X872000Y8877100D01*
X873300Y8886600D01*
Y8898300D01*
X872000Y8907800D01*
X868600Y8916200D01*
X864500Y8920500D01*
X859800Y8922600D01*
X854400Y8920500D01*
X850300Y8916200D01*
X847600Y8909900D01*
X846300Y8901400D01*
X847600Y8894000D01*
X851000Y8886600D01*
X855100Y8882400D01*
X859800Y8881300D01*
X865200Y8883400D01*
X869300Y8888700D01*
X873300Y8898300D01*
G01X915600Y8859100D02*
Y8922600D01*
X907500Y8909900D01*
G01Y8859100D02*
X923700D01*
G01X979500D02*
Y8922600D01*
X954500Y8877100D01*
X988300D01*
G01X748200Y9208400D02*
X742800Y9206300D01*
X738700Y9201000D01*
X736000Y9194600D01*
X734000Y9186200D01*
X733300Y9176600D01*
X734000Y9167100D01*
X736000Y9158700D01*
X738700Y9152300D01*
X742800Y9147000D01*
X748200Y9144900D01*
X753600Y9147000D01*
X757700Y9152300D01*
X760400Y9158700D01*
X762400Y9167100D01*
X763100Y9176600D01*
X762400Y9186200D01*
X760400Y9194600D01*
X757700Y9201000D01*
X753600Y9206300D01*
X748200Y9208400D01*
G01X804000Y9142800D02*
X802600Y9143800D01*
Y9146000D01*
X804000Y9147000D01*
X805400Y9146000D01*
Y9143800D01*
X804000Y9142800D01*
G01X846900Y9171400D02*
X851700Y9178800D01*
X855700Y9183000D01*
X861200Y9185100D01*
X865900Y9183000D01*
X869300Y9178800D01*
X872000Y9172400D01*
X872700Y9165000D01*
X872000Y9158700D01*
X869300Y9152300D01*
X865200Y9147000D01*
X860500Y9144900D01*
X855100Y9147000D01*
X850300Y9153400D01*
X847600Y9162900D01*
X846900Y9173500D01*
X848300Y9187200D01*
X850300Y9194600D01*
X853700Y9202000D01*
X858400Y9207300D01*
X863200Y9208400D01*
X867900Y9206300D01*
X871300Y9201000D01*
G01X900700Y9157600D02*
X904800Y9150200D01*
X910200Y9146000D01*
X916300Y9144900D01*
X921700Y9146000D01*
X927100Y9151200D01*
X930500Y9157600D01*
X931200Y9163900D01*
X929800Y9171400D01*
X925100Y9176600D01*
X920300Y9178800D01*
X914200D01*
G01X920300D02*
X924400Y9181900D01*
X927800Y9187200D01*
X929100Y9193600D01*
X927800Y9199900D01*
X924400Y9205200D01*
X918300Y9208400D01*
X912200Y9207300D01*
X906100Y9203100D01*
G01X956500Y9154400D02*
X960600Y9149100D01*
X965300Y9146000D01*
X971400Y9144900D01*
X977500Y9147000D01*
X982200Y9151200D01*
X985600Y9158700D01*
X986300Y9167100D01*
X984900Y9175600D01*
X981500Y9180900D01*
X976800Y9185100D01*
X972100Y9186200D01*
X967300Y9185100D01*
X961300Y9180900D01*
X963300Y9208400D01*
X981500D01*
G01X512100Y9351200D02*
Y9414700D01*
X537900D01*
G01X528400Y9384000D02*
X512100D01*
G01X572700Y9414700D02*
X588900D01*
G01X580800D02*
Y9351200D01*
G01X572700D02*
X588900D01*
G01X621000D02*
Y9414700D01*
X652200Y9351200D01*
Y9414700D01*
G01X684300D02*
X700500D01*
G01X692400D02*
Y9351200D01*
G01X684300D02*
X700500D01*
G01X734000Y9359700D02*
X739400Y9354400D01*
X745500Y9351200D01*
X750900D01*
X756300Y9354400D01*
X760400Y9359700D01*
X762400Y9367100D01*
X761100Y9374500D01*
X757700Y9380800D01*
X751600Y9385100D01*
X743500Y9387200D01*
X738700Y9391400D01*
X736700Y9398800D01*
X738100Y9406200D01*
X741400Y9411500D01*
X746200Y9414700D01*
X750900D01*
X755600Y9412600D01*
X759700Y9407300D01*
G01X789800Y9351200D02*
Y9414700D01*
G01X818200D02*
Y9351200D01*
G01Y9382900D02*
X789800D01*
G01X873300Y9351200D02*
X846300D01*
Y9414700D01*
X873300D01*
G01X862500Y9384000D02*
X846300D01*
G01X900700Y9351200D02*
Y9414700D01*
X914200D01*
X919700Y9411500D01*
X923700Y9407300D01*
X927100Y9400900D01*
X929800Y9393500D01*
X930500Y9382900D01*
X929800Y9372400D01*
X927100Y9365000D01*
X923700Y9358600D01*
X919700Y9354400D01*
X914200Y9351200D01*
X900700D01*
G01X951100Y9330000D02*
X991700D01*
G01X1013000Y9359700D02*
X1018400Y9354400D01*
X1024500Y9351200D01*
X1029900D01*
X1035300Y9354400D01*
X1039400Y9359700D01*
X1041400Y9367100D01*
X1040100Y9374500D01*
X1036700Y9380800D01*
X1030600Y9385100D01*
X1022500Y9387200D01*
X1017700Y9391400D01*
X1015700Y9398800D01*
X1017100Y9406200D01*
X1020400Y9411500D01*
X1025200Y9414700D01*
X1029900D01*
X1034600Y9412600D01*
X1038700Y9407300D01*
G01X1074900Y9414700D02*
X1091100D01*
G01X1083000D02*
Y9351200D01*
G01X1074900D02*
X1091100D01*
G01X1125900Y9414700D02*
X1151700D01*
X1125900Y9351200D01*
X1151700D01*
G01X1208100D02*
X1181100D01*
Y9414700D01*
X1208100D01*
G01X1197300Y9384000D02*
X1181100D01*
G01X348300Y9478200D02*
X365200Y9541700D01*
X382100Y9478200D01*
G01X376000Y9500400D02*
X354400D01*
G01X407500Y9541700D02*
Y9478200D01*
X434500D01*
G01X463300Y9541700D02*
Y9478200D01*
X490300D01*
G01X573500Y9541700D02*
Y9496200D01*
X576200Y9486700D01*
X581600Y9480300D01*
X588400Y9478200D01*
X595200Y9480300D01*
X600600Y9486700D01*
X603300Y9496200D01*
Y9541700D01*
G01X628600Y9478200D02*
Y9541700D01*
X659800Y9478200D01*
Y9541700D01*
G01X691900D02*
X708100D01*
G01X700000D02*
Y9478200D01*
G01X691900D02*
X708100D01*
G01X755800Y9541700D02*
Y9478200D01*
G01X740200Y9541700D02*
X771400D01*
G01X797400Y9486700D02*
X802800Y9481400D01*
X808900Y9478200D01*
X814300D01*
X819700Y9481400D01*
X823800Y9486700D01*
X825800Y9494100D01*
X824500Y9501500D01*
X821100Y9507800D01*
X815000Y9512100D01*
X806900Y9514200D01*
X802100Y9518400D01*
X800100Y9525800D01*
X801500Y9533200D01*
X804800Y9538500D01*
X809600Y9541700D01*
X814300D01*
X819000Y9539600D01*
X823100Y9534300D01*
G01X906300Y9478200D02*
X923200Y9541700D01*
X940100Y9478200D01*
G01X934000Y9500400D02*
X912400D01*
G01X965500Y9478200D02*
Y9541700D01*
X982400D01*
X987800Y9538500D01*
X991200Y9534300D01*
X992500Y9525800D01*
X991200Y9517400D01*
X987100Y9512100D01*
X982400Y9508900D01*
X965500D01*
G01X982400D02*
X992500Y9478200D01*
G01X1048300D02*
X1021300D01*
Y9541700D01*
X1048300D01*
G01X1037500Y9511000D02*
X1021300D01*
G01X1138300Y9541700D02*
X1154500D01*
G01X1146400D02*
Y9478200D01*
G01X1138300D02*
X1154500D01*
G01X1186600D02*
Y9541700D01*
X1217800Y9478200D01*
Y9541700D01*
G01X1296200Y9478200D02*
Y9541700D01*
X1313800Y9488800D01*
X1331400Y9541700D01*
Y9478200D01*
G01X1361500Y9541700D02*
X1377700D01*
G01X1369600D02*
Y9478200D01*
G01X1361500D02*
X1377700D01*
G01X1411900Y9541700D02*
Y9478200D01*
X1438900D01*
G01X1467700Y9541700D02*
Y9478200D01*
X1494700D01*
G01X1528900Y9541700D02*
X1545100D01*
G01X1537000D02*
Y9478200D01*
G01X1528900D02*
X1545100D01*
G01X1575200D02*
Y9541700D01*
X1592800Y9488800D01*
X1610400Y9541700D01*
Y9478200D01*
G01X1662100D02*
X1635100D01*
Y9541700D01*
X1662100D01*
G01X1651300Y9511000D02*
X1635100D01*
G01X1704400Y9541700D02*
Y9478200D01*
G01X1688800Y9541700D02*
X1720000D01*
G01X1773700Y9478200D02*
X1746700D01*
Y9541700D01*
X1773700D01*
G01X1762900Y9511000D02*
X1746700D01*
G01X1802500Y9478200D02*
Y9541700D01*
X1819400D01*
X1824800Y9538500D01*
X1828200Y9534300D01*
X1829500Y9525800D01*
X1828200Y9517400D01*
X1824100Y9512100D01*
X1819400Y9508900D01*
X1802500D01*
G01X1819400D02*
X1829500Y9478200D01*
G01X1857600Y9486700D02*
X1863000Y9481400D01*
X1869100Y9478200D01*
X1874500D01*
X1879900Y9481400D01*
X1884000Y9486700D01*
X1886000Y9494100D01*
X1884700Y9501500D01*
X1881300Y9507800D01*
X1875200Y9512100D01*
X1867100Y9514200D01*
X1862300Y9518400D01*
X1860300Y9525800D01*
X1861700Y9533200D01*
X1865000Y9538500D01*
X1869800Y9541700D01*
X1874500D01*
X1879200Y9539600D01*
X1883300Y9534300D01*
G01X406100Y10128200D02*
Y10191700D01*
X419600D01*
X425100Y10188500D01*
X429100Y10184300D01*
X432500Y10177900D01*
X435200Y10170500D01*
X435900Y10159900D01*
X435200Y10149400D01*
X432500Y10142000D01*
X429100Y10135600D01*
X425100Y10131400D01*
X419600Y10128200D01*
X406100D01*
G01X463300D02*
Y10191700D01*
X480200D01*
X485600Y10188500D01*
X489000Y10184300D01*
X490300Y10175800D01*
X489000Y10167400D01*
X484900Y10162100D01*
X480200Y10158900D01*
X463300D01*
G01X480200D02*
X490300Y10128200D01*
G01X524500Y10191700D02*
X540700D01*
G01X532600D02*
Y10128200D01*
G01X524500D02*
X540700D01*
G01X574900Y10191700D02*
Y10128200D01*
X601900D01*
G01X630700Y10191700D02*
Y10128200D01*
X657700D01*
G01X770700Y10186400D02*
X766600Y10189600D01*
X761900Y10191700D01*
X756500D01*
X750400Y10188500D01*
X745700Y10183200D01*
X742300Y10176900D01*
X739600Y10166300D01*
X738900Y10156800D01*
X740200Y10147200D01*
X742300Y10140900D01*
X746300Y10134500D01*
X751100Y10130300D01*
X755800Y10128200D01*
X760500D01*
X765300Y10130300D01*
X769300Y10133500D01*
X772700Y10137700D01*
G01X797400Y10128200D02*
Y10191700D01*
G01X825800D02*
Y10128200D01*
G01Y10159900D02*
X797400D01*
G01X850500Y10128200D02*
X867400Y10191700D01*
X884300Y10128200D01*
G01X878200Y10150400D02*
X856600D01*
G01X909700Y10128200D02*
Y10191700D01*
X926600D01*
X932000Y10188500D01*
X935400Y10184300D01*
X936700Y10175800D01*
X935400Y10167400D01*
X931300Y10162100D01*
X926600Y10158900D01*
X909700D01*
G01X926600D02*
X936700Y10128200D01*
G01X979000Y10191700D02*
Y10128200D01*
G01X963400Y10191700D02*
X994600D01*
G01X1034800Y10126100D02*
X1033400Y10127100D01*
Y10129300D01*
X1034800Y10130300D01*
X1036200Y10129300D01*
Y10127100D01*
X1034800Y10126100D01*
G01Y10154700D02*
X1033400Y10155700D01*
Y10157800D01*
X1034800Y10158900D01*
X1036200Y10157800D01*
Y10155700D01*
X1034800Y10154700D01*
G01X1146400Y10191700D02*
Y10128200D01*
G01X1130800Y10191700D02*
X1162000D01*
G01X1202200Y10128200D02*
X1196800Y10129300D01*
X1192100Y10133500D01*
X1188000Y10139800D01*
X1185300Y10147200D01*
X1183900Y10155700D01*
Y10164200D01*
X1185300Y10172700D01*
X1188000Y10180100D01*
X1192100Y10186400D01*
X1196800Y10190600D01*
X1202200Y10191700D01*
X1207600Y10190600D01*
X1212300Y10186400D01*
X1216400Y10180100D01*
X1219100Y10172700D01*
X1220500Y10164200D01*
Y10155700D01*
X1219100Y10147200D01*
X1216400Y10139800D01*
X1212300Y10133500D01*
X1207600Y10129300D01*
X1202200Y10128200D01*
G01X1244500D02*
Y10191700D01*
X1260700D01*
X1266100Y10188500D01*
X1270200Y10181100D01*
X1271500Y10172700D01*
X1270200Y10164200D01*
X1266800Y10157800D01*
X1260700Y10154700D01*
X1244500D01*
G01X1369600Y10191700D02*
Y10128200D01*
G01X1360100Y10170500D02*
X1379100D01*
G01X1425400Y10128200D02*
X1421300Y10129300D01*
X1417300Y10133500D01*
X1414600Y10140900D01*
X1413200Y10149400D01*
X1414600Y10157800D01*
X1417300Y10165200D01*
X1421300Y10169500D01*
X1425400Y10170500D01*
X1429500Y10169500D01*
X1433500Y10165200D01*
X1436200Y10157800D01*
X1436900Y10149400D01*
X1436200Y10140900D01*
X1433500Y10133500D01*
X1429500Y10129300D01*
X1425400Y10128200D01*
G01X1542400Y10162100D02*
X1545100Y10165200D01*
X1547100Y10170500D01*
X1548500Y10177900D01*
X1547100Y10184300D01*
X1544400Y10188500D01*
X1539700Y10191700D01*
X1521400D01*
Y10128200D01*
X1543800D01*
X1548500Y10132400D01*
X1551200Y10138800D01*
X1552600Y10146200D01*
X1551200Y10153600D01*
X1547100Y10159900D01*
X1542400Y10162100D01*
X1521400D01*
G01X1592800Y10128200D02*
X1587400Y10129300D01*
X1582700Y10133500D01*
X1578600Y10139800D01*
X1575900Y10147200D01*
X1574500Y10155700D01*
Y10164200D01*
X1575900Y10172700D01*
X1578600Y10180100D01*
X1582700Y10186400D01*
X1587400Y10190600D01*
X1592800Y10191700D01*
X1598200Y10190600D01*
X1602900Y10186400D01*
X1607000Y10180100D01*
X1609700Y10172700D01*
X1611100Y10164200D01*
Y10155700D01*
X1609700Y10147200D01*
X1607000Y10139800D01*
X1602900Y10133500D01*
X1598200Y10129300D01*
X1592800Y10128200D01*
G01X1648600Y10191700D02*
Y10128200D01*
G01X1633000Y10191700D02*
X1664200D01*
G01X1704400D02*
Y10128200D01*
G01X1688800Y10191700D02*
X1720000D01*
G01X1760200Y10128200D02*
X1754800Y10129300D01*
X1750100Y10133500D01*
X1746000Y10139800D01*
X1743300Y10147200D01*
X1741900Y10155700D01*
Y10164200D01*
X1743300Y10172700D01*
X1746000Y10180100D01*
X1750100Y10186400D01*
X1754800Y10190600D01*
X1760200Y10191700D01*
X1765600Y10190600D01*
X1770300Y10186400D01*
X1774400Y10180100D01*
X1777100Y10172700D01*
X1778500Y10164200D01*
Y10155700D01*
X1777100Y10147200D01*
X1774400Y10139800D01*
X1770300Y10133500D01*
X1765600Y10129300D01*
X1760200Y10128200D01*
G01X1798400D02*
Y10191700D01*
X1816000Y10138800D01*
X1833600Y10191700D01*
Y10128200D01*
G01X1333700Y8287600D02*
Y8351100D01*
X1364900Y8287600D01*
Y8351100D01*
G01X1405100Y8287600D02*
X1399700Y8288700D01*
X1395000Y8292900D01*
X1390900Y8299200D01*
X1388200Y8306600D01*
X1386800Y8315100D01*
Y8323600D01*
X1388200Y8332100D01*
X1390900Y8339500D01*
X1395000Y8345800D01*
X1399700Y8350000D01*
X1405100Y8351100D01*
X1410500Y8350000D01*
X1415200Y8345800D01*
X1419300Y8339500D01*
X1422000Y8332100D01*
X1423400Y8323600D01*
Y8315100D01*
X1422000Y8306600D01*
X1419300Y8299200D01*
X1415200Y8292900D01*
X1410500Y8288700D01*
X1405100Y8287600D01*
G01X1445300D02*
Y8351100D01*
X1476500Y8287600D01*
Y8351100D01*
G01X1507900Y8308800D02*
X1525500D01*
G01X1559000Y8287600D02*
Y8351100D01*
X1575200D01*
X1580600Y8347900D01*
X1584700Y8340500D01*
X1586000Y8332100D01*
X1584700Y8323600D01*
X1581300Y8317200D01*
X1575200Y8314100D01*
X1559000D01*
G01X1614800Y8351100D02*
Y8287600D01*
X1641800D01*
G01X1667200D02*
X1684100Y8351100D01*
X1701000Y8287600D01*
G01X1694900Y8309800D02*
X1673300D01*
G01X1739900Y8351100D02*
Y8287600D01*
G01X1724300Y8351100D02*
X1755500D01*
G01X1809200Y8287600D02*
X1782200D01*
Y8351100D01*
X1809200D01*
G01X1798400Y8320400D02*
X1782200D01*
G01X1836600Y8287600D02*
Y8351100D01*
X1850100D01*
X1855600Y8347900D01*
X1859600Y8343700D01*
X1863000Y8337300D01*
X1865700Y8329900D01*
X1866400Y8319300D01*
X1865700Y8308800D01*
X1863000Y8301400D01*
X1859600Y8295000D01*
X1855600Y8290800D01*
X1850100Y8287600D01*
X1836600D01*
G01X1447400Y8573400D02*
Y8636900D01*
X1463600D01*
X1469000Y8633700D01*
X1473100Y8626300D01*
X1474400Y8617900D01*
X1473100Y8609400D01*
X1469700Y8603000D01*
X1463600Y8599900D01*
X1447400D01*
G01X1503200Y8636900D02*
Y8573400D01*
X1530200D01*
G01X1555600D02*
X1572500Y8636900D01*
X1589400Y8573400D01*
G01X1583300Y8595600D02*
X1561700D01*
G01X1628300Y8636900D02*
Y8573400D01*
G01X1612700Y8636900D02*
X1643900D01*
G01X1697600Y8573400D02*
X1670600D01*
Y8636900D01*
X1697600D01*
G01X1686800Y8606200D02*
X1670600D01*
G01X1725000Y8573400D02*
Y8636900D01*
X1738500D01*
X1744000Y8633700D01*
X1748000Y8629500D01*
X1751400Y8623100D01*
X1754100Y8615700D01*
X1754800Y8605100D01*
X1754100Y8594600D01*
X1751400Y8587200D01*
X1748000Y8580800D01*
X1744000Y8576600D01*
X1738500Y8573400D01*
X1725000D01*
G01X1313800Y9446500D02*
Y8176500D01*
G01X1447400Y8859100D02*
Y8922600D01*
X1463600D01*
X1469000Y8919400D01*
X1473100Y8912000D01*
X1474400Y8903600D01*
X1473100Y8895100D01*
X1469700Y8888700D01*
X1463600Y8885600D01*
X1447400D01*
G01X1503200Y8922600D02*
Y8859100D01*
X1530200D01*
G01X1555600D02*
X1572500Y8922600D01*
X1589400Y8859100D01*
G01X1583300Y8881300D02*
X1561700D01*
G01X1628300Y8922600D02*
Y8859100D01*
G01X1612700Y8922600D02*
X1643900D01*
G01X1697600Y8859100D02*
X1670600D01*
Y8922600D01*
X1697600D01*
G01X1686800Y8891900D02*
X1670600D01*
G01X1725000Y8859100D02*
Y8922600D01*
X1738500D01*
X1744000Y8919400D01*
X1748000Y8915200D01*
X1751400Y8908800D01*
X1754100Y8901400D01*
X1754800Y8890800D01*
X1754100Y8880300D01*
X1751400Y8872900D01*
X1748000Y8866500D01*
X1744000Y8862300D01*
X1738500Y8859100D01*
X1725000D01*
G01X1447400Y9144900D02*
Y9208400D01*
X1463600D01*
X1469000Y9205200D01*
X1473100Y9197800D01*
X1474400Y9189400D01*
X1473100Y9180900D01*
X1469700Y9174500D01*
X1463600Y9171400D01*
X1447400D01*
G01X1503200Y9208400D02*
Y9144900D01*
X1530200D01*
G01X1555600D02*
X1572500Y9208400D01*
X1589400Y9144900D01*
G01X1583300Y9167100D02*
X1561700D01*
G01X1628300Y9208400D02*
Y9144900D01*
G01X1612700Y9208400D02*
X1643900D01*
G01X1697600Y9144900D02*
X1670600D01*
Y9208400D01*
X1697600D01*
G01X1686800Y9177700D02*
X1670600D01*
G01X1725000Y9144900D02*
Y9208400D01*
X1738500D01*
X1744000Y9205200D01*
X1748000Y9201000D01*
X1751400Y9194600D01*
X1754100Y9187200D01*
X1754800Y9176600D01*
X1754100Y9166100D01*
X1751400Y9158700D01*
X1748000Y9152300D01*
X1744000Y9148100D01*
X1738500Y9144900D01*
X1725000D01*
G01X1447400Y9351200D02*
Y9414700D01*
X1463600D01*
X1469000Y9411500D01*
X1473100Y9404100D01*
X1474400Y9395700D01*
X1473100Y9387200D01*
X1469700Y9380800D01*
X1463600Y9377700D01*
X1447400D01*
G01X1503200Y9414700D02*
Y9351200D01*
X1530200D01*
G01X1555600D02*
X1572500Y9414700D01*
X1589400Y9351200D01*
G01X1583300Y9373400D02*
X1561700D01*
G01X1628300Y9414700D02*
Y9351200D01*
G01X1612700Y9414700D02*
X1643900D01*
G01X1697600Y9351200D02*
X1670600D01*
Y9414700D01*
X1697600D01*
G01X1686800Y9384000D02*
X1670600D01*
G01X1725000Y9351200D02*
Y9414700D01*
X1738500D01*
X1744000Y9411500D01*
X1748000Y9407300D01*
X1751400Y9400900D01*
X1754100Y9393500D01*
X1754800Y9382900D01*
X1754100Y9372400D01*
X1751400Y9365000D01*
X1748000Y9358600D01*
X1744000Y9354400D01*
X1738500Y9351200D01*
X1725000D01*
G01X2070100Y8287600D02*
Y8351100D01*
X2045100Y8305600D01*
X2078900D01*
G01X2019200Y8586100D02*
X2023300Y8578700D01*
X2028700Y8574500D01*
X2034800Y8573400D01*
X2040200Y8574500D01*
X2045600Y8579700D01*
X2049000Y8586100D01*
X2049700Y8592400D01*
X2048300Y8599900D01*
X2043600Y8605100D01*
X2038800Y8607300D01*
X2032700D01*
G01X2038800D02*
X2042900Y8610400D01*
X2046300Y8615700D01*
X2047600Y8622100D01*
X2046300Y8628400D01*
X2042900Y8633700D01*
X2036800Y8636900D01*
X2030700Y8635800D01*
X2024600Y8631600D01*
G01X2098000Y8573400D02*
Y8636900D01*
X2073000Y8591400D01*
X2106800D01*
G01X1887000Y9446500D02*
Y8176500D01*
G01X2042200Y8859100D02*
Y8922600D01*
X2017200Y8877100D01*
X2051000D01*
G01X2077000Y8885600D02*
X2081800Y8893000D01*
X2085800Y8897200D01*
X2091300Y8899300D01*
X2096000Y8897200D01*
X2099400Y8893000D01*
X2102100Y8886600D01*
X2102800Y8879200D01*
X2102100Y8872900D01*
X2099400Y8866500D01*
X2095300Y8861200D01*
X2090600Y8859100D01*
X2085200Y8861200D01*
X2080400Y8867600D01*
X2077700Y8877100D01*
X2077000Y8887700D01*
X2078400Y8901400D01*
X2080400Y8908800D01*
X2083800Y8916200D01*
X2088500Y8921500D01*
X2093300Y8922600D01*
X2098000Y8920500D01*
X2101400Y8915200D01*
G01X2070100Y9144900D02*
Y9208400D01*
X2045100Y9162900D01*
X2078900D01*
G01X2006200Y9351200D02*
X2000800Y9352300D01*
X1996100Y9356500D01*
X1992000Y9362800D01*
X1989300Y9370200D01*
X1987900Y9378700D01*
Y9387200D01*
X1989300Y9395700D01*
X1992000Y9403100D01*
X1996100Y9409400D01*
X2000800Y9413600D01*
X2006200Y9414700D01*
X2011600Y9413600D01*
X2016300Y9409400D01*
X2020400Y9403100D01*
X2023100Y9395700D01*
X2024500Y9387200D01*
Y9378700D01*
X2023100Y9370200D01*
X2020400Y9362800D01*
X2016300Y9356500D01*
X2011600Y9352300D01*
X2006200Y9351200D01*
G01X2011600Y9368100D02*
X2019700Y9351200D01*
G01X2062000Y9414700D02*
Y9351200D01*
G01X2046400Y9414700D02*
X2077600D01*
G01X2117800Y9351200D02*
Y9379800D01*
X2104300Y9414700D01*
G01X2131300D02*
X2117800Y9379800D01*
M02*
