G04 ================== begin FILE IDENTIFICATION RECORD ==================*
G04 Layout Name:  C:/Users/user/Desktop/work/DA_CONVERTOR/allegro/DA_CONVERTER.brd*
G04 Film Name:    SilkT*
G04 File Format:  Gerber RS274X*
G04 File Origin:  Cadence Allegro 17.2-P019*
G04 Origin Date:  Wed Jul 31 17:04:23 2019*
G04 *
G04 Layer:  REF DES/SILKSCREEN_TOP*
G04 Layer:  PACKAGE GEOMETRY/SILKSCREEN_TOP*
G04 Layer:  BOARD GEOMETRY/SILKSCREEN_TOP*
G04 *
G04 Offset:    (0.000 0.000)*
G04 Mirror:    No*
G04 Mode:      Positive*
G04 Rotation:  0*
G04 FullContactRelief:  No*
G04 UndefLineWidth:     0.200*
G04 ================== end FILE IDENTIFICATION RECORD ====================*
%FSLAX25Y25*MOMM*%
%IR0*IPPOS*OFA0.00000B0.00000*MIA0B0*SFA1.00000B1.00000*%
%ADD10C,.5*%
%ADD11C,.2*%
G75*
%LPD*%
G75*
G54D10*
G01X3925000Y400000D02*
X3825000D01*
Y800000D01*
X3925000D01*
G01X3885000Y606700D02*
X3825000D01*
G01X3990200Y800000D02*
Y400000D01*
X4090200D01*
G01X4255400D02*
X4155400D01*
Y800000D01*
X4255400D01*
G01X4215400Y606700D02*
X4155400D01*
G01X4425600Y766700D02*
X4410600Y786700D01*
X4393100Y800000D01*
X4373100D01*
X4350600Y780000D01*
X4333100Y746700D01*
X4320600Y706700D01*
X4310600Y640000D01*
X4308100Y580000D01*
X4313100Y520000D01*
X4320600Y480000D01*
X4335600Y440000D01*
X4353100Y413300D01*
X4370600Y400000D01*
X4388100D01*
X4405600Y413300D01*
X4420600Y433300D01*
X4433100Y460000D01*
G01X4535800Y800000D02*
Y400000D01*
G01X4478300Y800000D02*
X4593300D01*
G01X4651000Y400000D02*
Y800000D01*
X4713500D01*
X4733500Y780000D01*
X4746000Y753300D01*
X4751000Y700000D01*
X4746000Y646700D01*
X4731000Y613300D01*
X4713500Y593300D01*
X4651000D01*
G01X4713500D02*
X4751000Y400000D01*
G01X4866200D02*
X4846200Y406700D01*
X4828700Y433300D01*
X4813700Y473300D01*
X4803700Y520000D01*
X4798700Y573300D01*
Y626700D01*
X4803700Y680000D01*
X4813700Y726700D01*
X4828700Y766700D01*
X4846200Y793300D01*
X4866200Y800000D01*
X4886200Y793300D01*
X4903700Y766700D01*
X4918700Y726700D01*
X4928700Y680000D01*
X4933700Y626700D01*
Y573300D01*
X4928700Y520000D01*
X4918700Y473300D01*
X4903700Y433300D01*
X4886200Y406700D01*
X4866200Y400000D01*
G01X4973900D02*
Y800000D01*
X5088900Y400000D01*
Y800000D01*
G01X5166600D02*
X5226600D01*
G01X5196600D02*
Y400000D01*
G01X5166600D02*
X5226600D01*
G01X5416800Y766700D02*
X5401800Y786700D01*
X5384300Y800000D01*
X5364300D01*
X5341800Y780000D01*
X5324300Y746700D01*
X5311800Y706700D01*
X5301800Y640000D01*
X5299300Y580000D01*
X5304300Y520000D01*
X5311800Y480000D01*
X5326800Y440000D01*
X5344300Y413300D01*
X5361800Y400000D01*
X5379300D01*
X5396800Y413300D01*
X5411800Y433300D01*
X5424300Y460000D01*
G01X5747200Y766700D02*
X5732200Y786700D01*
X5714700Y800000D01*
X5694700D01*
X5672200Y780000D01*
X5654700Y746700D01*
X5642200Y706700D01*
X5632200Y640000D01*
X5629700Y580000D01*
X5634700Y520000D01*
X5642200Y480000D01*
X5657200Y440000D01*
X5674700Y413300D01*
X5692200Y400000D01*
X5709700D01*
X5727200Y413300D01*
X5742200Y433300D01*
X5754700Y460000D01*
G01X5794900Y400000D02*
X5857400Y800000D01*
X5919900Y400000D01*
G01X5897400Y540000D02*
X5817400D01*
G01X5967600Y400000D02*
Y800000D01*
X6017600D01*
X6037600Y780000D01*
X6052600Y753300D01*
X6065100Y713300D01*
X6075100Y666700D01*
X6077600Y600000D01*
X6075100Y533300D01*
X6065100Y486700D01*
X6052600Y446700D01*
X6037600Y420000D01*
X6017600Y400000D01*
X5967600D01*
G01X4040000Y6260000D02*
Y6660000D01*
X4090000D01*
X4110000Y6640000D01*
X4125000Y6613300D01*
X4137500Y6573300D01*
X4147500Y6526700D01*
X4150000Y6460000D01*
X4147500Y6393300D01*
X4137500Y6346700D01*
X4125000Y6306700D01*
X4110000Y6280000D01*
X4090000Y6260000D01*
X4040000D01*
G01X4197700D02*
X4260200Y6660000D01*
X4322700Y6260000D01*
G01X4300200Y6400000D02*
X4220200D01*
G01X4645600Y6626700D02*
X4630600Y6646700D01*
X4613100Y6660000D01*
X4593100D01*
X4570600Y6640000D01*
X4553100Y6606700D01*
X4540600Y6566700D01*
X4530600Y6500000D01*
X4528100Y6440000D01*
X4533100Y6380000D01*
X4540600Y6340000D01*
X4555600Y6300000D01*
X4573100Y6273300D01*
X4590600Y6260000D01*
X4608100D01*
X4625600Y6273300D01*
X4640600Y6293300D01*
X4653100Y6320000D01*
G01X4755800Y6260000D02*
X4735800Y6266700D01*
X4718300Y6293300D01*
X4703300Y6333300D01*
X4693300Y6380000D01*
X4688300Y6433300D01*
Y6486700D01*
X4693300Y6540000D01*
X4703300Y6586700D01*
X4718300Y6626700D01*
X4735800Y6653300D01*
X4755800Y6660000D01*
X4775800Y6653300D01*
X4793300Y6626700D01*
X4808300Y6586700D01*
X4818300Y6540000D01*
X4823300Y6486700D01*
Y6433300D01*
X4818300Y6380000D01*
X4808300Y6333300D01*
X4793300Y6293300D01*
X4775800Y6266700D01*
X4755800Y6260000D01*
G01X4863500D02*
Y6660000D01*
X4978500Y6260000D01*
Y6660000D01*
G01X5023700D02*
X5086200Y6260000D01*
X5148700Y6660000D01*
G01X5301400Y6260000D02*
X5201400D01*
Y6660000D01*
X5301400D01*
G01X5261400Y6466700D02*
X5201400D01*
G01X5366600Y6260000D02*
Y6660000D01*
X5429100D01*
X5449100Y6640000D01*
X5461600Y6613300D01*
X5466600Y6560000D01*
X5461600Y6506700D01*
X5446600Y6473300D01*
X5429100Y6453300D01*
X5366600D01*
G01X5429100D02*
X5466600Y6260000D01*
G01X5581800Y6660000D02*
Y6260000D01*
G01X5524300Y6660000D02*
X5639300D01*
G01X5747000Y6260000D02*
X5727000Y6266700D01*
X5709500Y6293300D01*
X5694500Y6333300D01*
X5684500Y6380000D01*
X5679500Y6433300D01*
Y6486700D01*
X5684500Y6540000D01*
X5694500Y6586700D01*
X5709500Y6626700D01*
X5727000Y6653300D01*
X5747000Y6660000D01*
X5767000Y6653300D01*
X5784500Y6626700D01*
X5799500Y6586700D01*
X5809500Y6540000D01*
X5814500Y6486700D01*
Y6433300D01*
X5809500Y6380000D01*
X5799500Y6333300D01*
X5784500Y6293300D01*
X5767000Y6266700D01*
X5747000Y6260000D01*
G01X5862200D02*
Y6660000D01*
X5924700D01*
X5944700Y6640000D01*
X5957200Y6613300D01*
X5962200Y6560000D01*
X5957200Y6506700D01*
X5942200Y6473300D01*
X5924700Y6453300D01*
X5862200D01*
G01X5924700D02*
X5962200Y6260000D01*
G54D11*
G01X373000Y3627000D02*
X627000D01*
Y2611000D01*
X373000D01*
Y3627000D01*
G01X682900Y3614700D02*
X670200Y3606700D01*
X661700Y3597000D01*
X657500Y3585800D01*
X661700Y3572900D01*
X670200Y3563200D01*
X682900Y3553600D01*
X699800Y3550400D01*
X784500D01*
G01X657500Y3453100D02*
X784500D01*
X759100Y3472400D01*
G01X657500D02*
Y3433800D01*
G01X1593000Y1472400D02*
Y2183600D01*
X1847000D01*
Y1472400D01*
X1593000D01*
G01X1830100Y1942300D02*
Y2021000D01*
X1854500D01*
X1862300Y2017100D01*
X1867100Y2011800D01*
X1869100Y2001300D01*
X1867100Y1990800D01*
X1861300Y1984300D01*
X1854500Y1980300D01*
X1830100D01*
G01X1854500D02*
X1869100Y1942300D01*
G01X1928300D02*
Y2021000D01*
X1916600Y2005300D01*
G01Y1942300D02*
X1940000D01*
G01X2005100D02*
X2007000Y1959400D01*
X2009900Y1973800D01*
X2013800Y1986900D01*
X2018700Y2001300D01*
X2026500Y2021000D01*
X1987500D01*
G01X1613000Y3132400D02*
Y3843600D01*
X1867000D01*
Y3132400D01*
X1613000D01*
G01X2054000Y5147000D02*
G03I-254000J0D01*
G01X1262600Y5492000D02*
X1253000Y5498400D01*
X1241700Y5502600D01*
X1228900D01*
X1214400Y5496200D01*
X1203100Y5485700D01*
X1195100Y5473000D01*
X1188600Y5451800D01*
X1187000Y5432700D01*
X1190300Y5413700D01*
X1195100Y5401000D01*
X1204700Y5388300D01*
X1216000Y5379800D01*
X1227200Y5375600D01*
X1238500D01*
X1249800Y5379800D01*
X1259400Y5386200D01*
X1267500Y5394600D01*
G01X1356700Y5375600D02*
Y5502600D01*
X1337400Y5477200D01*
G01Y5375600D02*
X1376000D01*
G01X1889400Y3602300D02*
Y3681000D01*
X1913800D01*
X1921600Y3677100D01*
X1926400Y3671800D01*
X1928400Y3661300D01*
X1926400Y3650800D01*
X1920600Y3644300D01*
X1913800Y3640300D01*
X1889400D01*
G01X1913800D02*
X1928400Y3602300D01*
G01X1966200Y3618000D02*
X1972000Y3608900D01*
X1979800Y3603600D01*
X1988600Y3602300D01*
X1996400Y3603600D01*
X2004100Y3610200D01*
X2009000Y3618000D01*
X2010000Y3625900D01*
X2008000Y3635100D01*
X2001200Y3641600D01*
X1994400Y3644300D01*
X1985700D01*
G01X1994400D02*
X2000300Y3648200D01*
X2005100Y3654800D01*
X2007100Y3662600D01*
X2005100Y3670500D01*
X2000300Y3677100D01*
X1991500Y3681000D01*
X1982700Y3679700D01*
X1974000Y3674400D01*
G01X2661600Y2347000D02*
X2814000D01*
X2877500Y2283500D01*
X3004500D01*
X3068000Y2347000D01*
X3220400D01*
Y1331000D01*
X2661600D01*
Y2347000D01*
G01X2681600Y3847000D02*
X2834000D01*
X2897500Y3783500D01*
X3024500D01*
X3088000Y3847000D01*
X3240400D01*
Y2831000D01*
X2681600D01*
Y3847000D01*
G01X2661600Y5387000D02*
X2814000D01*
X2877500Y5323500D01*
X3004500D01*
X3068000Y5387000D01*
X3220400D01*
Y4371000D01*
X2661600D01*
Y5387000D01*
G01X3122300Y5630600D02*
X3201000D01*
Y5606200D01*
X3197100Y5598400D01*
X3191800Y5593600D01*
X3181300Y5591600D01*
X3170800Y5593600D01*
X3164300Y5599400D01*
X3160300Y5606200D01*
Y5630600D01*
G01Y5606200D02*
X3122300Y5591600D01*
G01Y5532400D02*
X3201000D01*
X3185300Y5544100D01*
G01X3122300D02*
Y5520700D01*
G01X2652400Y5907000D02*
X3363600D01*
Y5653000D01*
X2652400D01*
Y5907000D01*
G01X3465700Y2202200D02*
Y2111200D01*
X3472100Y2092100D01*
X3485000Y2079400D01*
X3501000Y2075200D01*
X3517100Y2079400D01*
X3530000Y2092100D01*
X3536400Y2111200D01*
Y2202200D01*
G01X3600000Y2128100D02*
X3611200Y2142900D01*
X3620900Y2151400D01*
X3633800Y2155600D01*
X3645000Y2151400D01*
X3653100Y2142900D01*
X3659500Y2130200D01*
X3661100Y2115400D01*
X3659500Y2102700D01*
X3653100Y2090000D01*
X3643400Y2079400D01*
X3632200Y2075200D01*
X3619300Y2079400D01*
X3608000Y2092100D01*
X3601600Y2111200D01*
X3600000Y2132300D01*
X3603200Y2159900D01*
X3608000Y2174700D01*
X3616100Y2189500D01*
X3627300Y2200100D01*
X3638600Y2202200D01*
X3649900Y2198000D01*
X3657900Y2187400D01*
G01X3485700Y3702200D02*
Y3611200D01*
X3492100Y3592100D01*
X3505000Y3579400D01*
X3521000Y3575200D01*
X3537100Y3579400D01*
X3550000Y3592100D01*
X3556400Y3611200D01*
Y3702200D01*
G01X3615200Y3594200D02*
X3624800Y3583700D01*
X3636100Y3577300D01*
X3650500Y3575200D01*
X3665000Y3579400D01*
X3676300Y3587900D01*
X3684300Y3602700D01*
X3685900Y3619600D01*
X3682700Y3636600D01*
X3674700Y3647200D01*
X3663400Y3655600D01*
X3652200Y3657700D01*
X3640900Y3655600D01*
X3626400Y3647200D01*
X3631200Y3702200D01*
X3674700D01*
G01X3953000Y4932400D02*
Y5643600D01*
X4207000D01*
Y4932400D01*
X3953000D01*
G01X3465700Y5242200D02*
Y5151200D01*
X3472100Y5132100D01*
X3485000Y5119400D01*
X3501000Y5115200D01*
X3517100Y5119400D01*
X3530000Y5132100D01*
X3536400Y5151200D01*
Y5242200D01*
G01X3630500Y5115200D02*
Y5242200D01*
X3611200Y5216800D01*
G01Y5115200D02*
X3649800D01*
G01X4589900Y1717700D02*
Y1639000D01*
X4565500D01*
X4557700Y1642900D01*
X4552900Y1648200D01*
X4550900Y1658700D01*
X4552900Y1669200D01*
X4558700Y1675700D01*
X4565500Y1679700D01*
X4589900D01*
G01X4565500D02*
X4550900Y1717700D01*
G01X4491700D02*
Y1639000D01*
X4503400Y1654700D01*
G01Y1717700D02*
X4480000D01*
G01X4431500Y1684900D02*
X4424700Y1675700D01*
X4418800Y1670500D01*
X4411100Y1667900D01*
X4404200Y1670500D01*
X4399400Y1675700D01*
X4395500Y1683600D01*
X4394500Y1692800D01*
X4395500Y1700600D01*
X4399400Y1708500D01*
X4405200Y1715100D01*
X4412000Y1717700D01*
X4419800Y1715100D01*
X4426600Y1707200D01*
X4430500Y1695400D01*
X4431500Y1682300D01*
X4429500Y1665200D01*
X4426600Y1656100D01*
X4421800Y1646900D01*
X4414900Y1640300D01*
X4408100Y1639000D01*
X4401300Y1641600D01*
X4396500Y1648200D01*
G01X4827000Y2187600D02*
Y1476400D01*
X4573000D01*
Y2187600D01*
X4827000D01*
G01X4550600Y3317700D02*
Y3239000D01*
X4526200D01*
X4518400Y3242900D01*
X4513600Y3248200D01*
X4511600Y3258700D01*
X4513600Y3269200D01*
X4519400Y3275700D01*
X4526200Y3279700D01*
X4550600D01*
G01X4526200D02*
X4511600Y3317700D01*
G01X4473800Y3305900D02*
X4468000Y3312500D01*
X4461200Y3316400D01*
X4452400Y3317700D01*
X4443600Y3315100D01*
X4436800Y3309800D01*
X4432000Y3300600D01*
X4431000Y3290200D01*
X4432900Y3279700D01*
X4437800Y3273100D01*
X4444600Y3267900D01*
X4451400Y3266500D01*
X4458200Y3267900D01*
X4467000Y3273100D01*
X4464100Y3239000D01*
X4437800D01*
G01X4827000Y3787600D02*
Y3076400D01*
X4573000D01*
Y3787600D01*
X4827000D01*
G01X4570600Y5157700D02*
Y5079000D01*
X4546200D01*
X4538400Y5082900D01*
X4533600Y5088200D01*
X4531600Y5098700D01*
X4533600Y5109200D01*
X4539400Y5115700D01*
X4546200Y5119700D01*
X4570600D01*
G01X4546200D02*
X4531600Y5157700D01*
G01X4460700D02*
Y5079000D01*
X4496700Y5135400D01*
X4448100D01*
G01X4847000Y5627600D02*
Y4916400D01*
X4593000D01*
Y5627600D01*
X4847000D01*
G01X4229400Y5402300D02*
Y5481000D01*
X4253800D01*
X4261600Y5477100D01*
X4266400Y5471800D01*
X4268400Y5461300D01*
X4266400Y5450800D01*
X4260600Y5444300D01*
X4253800Y5440300D01*
X4229400D01*
G01X4253800D02*
X4268400Y5402300D01*
G01X4309100Y5467900D02*
X4314900Y5475800D01*
X4321800Y5479700D01*
X4329500Y5481000D01*
X4339300Y5478400D01*
X4346100Y5471800D01*
X4348000Y5463900D01*
X4347100Y5456100D01*
X4343200Y5449500D01*
X4323700Y5436400D01*
X4314900Y5427200D01*
X4309100Y5414100D01*
X4307200Y5402300D01*
X4348000D01*
G01X5849900Y3317700D02*
Y3239000D01*
X5825500D01*
X5817700Y3242900D01*
X5812900Y3248200D01*
X5810900Y3258700D01*
X5812900Y3269200D01*
X5818700Y3275700D01*
X5825500Y3279700D01*
X5849900D01*
G01X5825500D02*
X5810900Y3317700D01*
G01X5751700D02*
Y3239000D01*
X5763400Y3254700D01*
G01Y3317700D02*
X5740000D01*
G01X5694400Y3302000D02*
X5688600Y3311100D01*
X5680800Y3316400D01*
X5672000Y3317700D01*
X5664200Y3316400D01*
X5656500Y3309800D01*
X5651600Y3302000D01*
X5650600Y3294100D01*
X5652600Y3284900D01*
X5659400Y3278400D01*
X5666200Y3275700D01*
X5674900D01*
G01X5666200D02*
X5660300Y3271800D01*
X5655500Y3265200D01*
X5653500Y3257400D01*
X5655500Y3249500D01*
X5660300Y3242900D01*
X5669100Y3239000D01*
X5677900Y3240300D01*
X5686600Y3245600D01*
G01X5233000Y3052400D02*
Y3763600D01*
X5487000D01*
Y3052400D01*
X5233000D01*
G01X5509400Y3522300D02*
Y3601000D01*
X5533800D01*
X5541600Y3597100D01*
X5546400Y3591800D01*
X5548400Y3581300D01*
X5546400Y3570800D01*
X5540600Y3564300D01*
X5533800Y3560300D01*
X5509400D01*
G01X5533800D02*
X5548400Y3522300D01*
G01X5589100Y3555100D02*
X5595900Y3564300D01*
X5601800Y3569500D01*
X5609500Y3572100D01*
X5616400Y3569500D01*
X5621200Y3564300D01*
X5625100Y3556400D01*
X5626100Y3547200D01*
X5625100Y3539400D01*
X5621200Y3531500D01*
X5615400Y3524900D01*
X5608600Y3522300D01*
X5600800Y3524900D01*
X5594000Y3532800D01*
X5590100Y3544600D01*
X5589100Y3557700D01*
X5591100Y3574800D01*
X5594000Y3583900D01*
X5598800Y3593100D01*
X5605700Y3599700D01*
X5612500Y3601000D01*
X5619300Y3598400D01*
X5624100Y3591800D01*
G01X5509400Y5382300D02*
Y5461000D01*
X5533800D01*
X5541600Y5457100D01*
X5546400Y5451800D01*
X5548400Y5441300D01*
X5546400Y5430800D01*
X5540600Y5424300D01*
X5533800Y5420300D01*
X5509400D01*
G01X5533800D02*
X5548400Y5382300D01*
G01X5605700D02*
X5607600Y5399400D01*
X5610500Y5413800D01*
X5614400Y5426900D01*
X5619300Y5441300D01*
X5627100Y5461000D01*
X5588100D01*
G01X5233000Y4912400D02*
Y5623600D01*
X5487000D01*
Y4912400D01*
X5233000D01*
G01X6342300Y1330600D02*
X6421000D01*
Y1306200D01*
X6417100Y1298400D01*
X6411800Y1293600D01*
X6401300Y1291600D01*
X6390800Y1293600D01*
X6384300Y1299400D01*
X6380300Y1306200D01*
Y1330600D01*
G01Y1306200D02*
X6342300Y1291600D01*
G01X6351500Y1248900D02*
X6344900Y1242100D01*
X6342300Y1234300D01*
X6344900Y1226600D01*
X6352800Y1219700D01*
X6364600Y1214900D01*
X6376400Y1212900D01*
X6390800D01*
X6402600Y1214900D01*
X6413100Y1219700D01*
X6418400Y1225600D01*
X6421000Y1232400D01*
X6418400Y1240200D01*
X6413100Y1246000D01*
X6405300Y1249900D01*
X6394800Y1251900D01*
X6385600Y1249900D01*
X6376400Y1245100D01*
X6371200Y1239200D01*
X6369800Y1232400D01*
X6372500Y1224600D01*
X6379000Y1218800D01*
X6390800Y1212900D01*
G01X5872400Y1607000D02*
X6583600D01*
Y1353000D01*
X5872400D01*
Y1607000D01*
G01X6117700Y2229400D02*
X6039000D01*
Y2253800D01*
X6042900Y2261600D01*
X6048200Y2266400D01*
X6058700Y2268400D01*
X6069200Y2266400D01*
X6075700Y2260600D01*
X6079700Y2253800D01*
Y2229400D01*
G01Y2253800D02*
X6117700Y2268400D01*
G01Y2327600D02*
X6116400Y2334400D01*
X6112500Y2342200D01*
X6105900Y2347100D01*
X6096700Y2349000D01*
X6087500Y2347100D01*
X6079700Y2341200D01*
X6075700Y2332500D01*
Y2322700D01*
X6073100Y2316900D01*
X6066500Y2312000D01*
X6057400Y2310100D01*
X6048200Y2313000D01*
X6041600Y2319800D01*
X6039000Y2327600D01*
X6041600Y2335400D01*
X6048200Y2342200D01*
X6057400Y2345100D01*
X6066500Y2343200D01*
X6073100Y2338300D01*
X6075700Y2332500D01*
Y2322700D01*
X6079700Y2314000D01*
X6087500Y2308100D01*
X6096700Y2306200D01*
X6105900Y2308100D01*
X6112500Y2313000D01*
X6116400Y2320800D01*
X6117700Y2327600D01*
G01X6587600Y1953000D02*
X5876400D01*
Y2207000D01*
X6587600D01*
Y1953000D01*
G01X6087000Y3787600D02*
Y3076400D01*
X5833000D01*
Y3787600D01*
X6087000D01*
G01X6469900Y3337700D02*
Y3259000D01*
X6445500D01*
X6437700Y3262900D01*
X6432900Y3268200D01*
X6430900Y3278700D01*
X6432900Y3289200D01*
X6438700Y3295700D01*
X6445500Y3299700D01*
X6469900D01*
G01X6445500D02*
X6430900Y3337700D01*
G01X6371700D02*
Y3259000D01*
X6383400Y3274700D01*
G01Y3337700D02*
X6360000D01*
G01X6311500Y3272100D02*
X6305700Y3264200D01*
X6298800Y3260300D01*
X6291100Y3259000D01*
X6281300Y3261600D01*
X6274500Y3268200D01*
X6272600Y3276100D01*
X6273500Y3283900D01*
X6277400Y3290500D01*
X6296900Y3303600D01*
X6305700Y3312800D01*
X6311500Y3325900D01*
X6313400Y3337700D01*
X6272600D01*
G01X5893000Y5093900D02*
X5829500D01*
Y5107400D01*
X5832700Y5112900D01*
X5836900Y5116900D01*
X5843300Y5120300D01*
X5850700Y5123000D01*
X5861300Y5123700D01*
X5871800Y5123000D01*
X5879200Y5120300D01*
X5885600Y5116900D01*
X5889800Y5112900D01*
X5893000Y5107400D01*
Y5093900D01*
G01Y5164600D02*
X5829500D01*
X5842200Y5156500D01*
G01X5893000D02*
Y5172700D01*
G01X6121600Y5304400D02*
X5918400D01*
G01X6121600Y5291700D02*
X5918400D01*
G01X6121600Y5406000D02*
Y4999600D01*
X5918400D01*
Y5406000D01*
X6121600D01*
G01X7289900Y3337700D02*
Y3259000D01*
X7265500D01*
X7257700Y3262900D01*
X7252900Y3268200D01*
X7250900Y3278700D01*
X7252900Y3289200D01*
X7258700Y3295700D01*
X7265500Y3299700D01*
X7289900D01*
G01X7265500D02*
X7250900Y3337700D01*
G01X7191700D02*
Y3259000D01*
X7203400Y3274700D01*
G01Y3337700D02*
X7180000D01*
G01X7101300D02*
Y3259000D01*
X7137300Y3315400D01*
X7088700D01*
G01X6707000Y3807600D02*
Y3096400D01*
X6453000D01*
Y3807600D01*
X6707000D01*
G01X8850500Y5618400D02*
X6945500D01*
Y5059600D01*
X8850500D01*
Y5212000D01*
X8787000Y5275500D01*
Y5402500D01*
X8850500Y5466000D01*
Y5618400D01*
G01X6747000Y5426100D02*
X6810500D01*
Y5412600D01*
X6807300Y5407100D01*
X6803100Y5403100D01*
X6796700Y5399700D01*
X6789300Y5397000D01*
X6778700Y5396300D01*
X6768200Y5397000D01*
X6760800Y5399700D01*
X6754400Y5403100D01*
X6750200Y5407100D01*
X6747000Y5412600D01*
Y5426100D01*
G01X6799900Y5368300D02*
X6806300Y5364200D01*
X6809400Y5359500D01*
X6810500Y5354000D01*
X6808400Y5347300D01*
X6803100Y5342500D01*
X6796700Y5341200D01*
X6790400Y5341900D01*
X6785100Y5344600D01*
X6774500Y5358100D01*
X6767100Y5364200D01*
X6756500Y5368300D01*
X6747000Y5369600D01*
Y5341200D01*
G01X6518400Y5215600D02*
X6721600D01*
G01X6518400Y5228300D02*
X6721600D01*
G01X6518400Y5114000D02*
Y5520400D01*
X6721600D01*
Y5114000D01*
X6518400D01*
G01X7672400Y1687000D02*
X8383600D01*
Y1433000D01*
X7672400D01*
Y1687000D01*
G01X7969900Y3357700D02*
Y3279000D01*
X7945500D01*
X7937700Y3282900D01*
X7932900Y3288200D01*
X7930900Y3298700D01*
X7932900Y3309200D01*
X7938700Y3315700D01*
X7945500Y3319700D01*
X7969900D01*
G01X7945500D02*
X7930900Y3357700D01*
G01X7871700D02*
Y3279000D01*
X7883400Y3294700D01*
G01Y3357700D02*
X7860000D01*
G01X7814400Y3345900D02*
X7808600Y3352500D01*
X7801800Y3356400D01*
X7793000Y3357700D01*
X7784200Y3355100D01*
X7777400Y3349800D01*
X7772600Y3340600D01*
X7771600Y3330200D01*
X7773500Y3319700D01*
X7778400Y3313100D01*
X7785200Y3307900D01*
X7792000Y3306500D01*
X7798800Y3307900D01*
X7807600Y3313100D01*
X7804700Y3279000D01*
X7778400D01*
G01X8207000Y3827600D02*
Y3116400D01*
X7953000D01*
Y3827600D01*
X8207000D01*
G01X7527000Y3807600D02*
Y3096400D01*
X7273000D01*
Y3807600D01*
X7527000D01*
G01X8142300Y1449900D02*
X8221000D01*
Y1425500D01*
X8217100Y1417700D01*
X8211800Y1412900D01*
X8201300Y1410900D01*
X8190800Y1412900D01*
X8184300Y1418700D01*
X8180300Y1425500D01*
Y1449900D01*
G01Y1425500D02*
X8142300Y1410900D01*
G01Y1351700D02*
X8221000D01*
X8205300Y1363400D01*
G01X8142300D02*
Y1340000D01*
G01X8221000Y1273000D02*
X8218400Y1280800D01*
X8211800Y1286600D01*
X8203900Y1290500D01*
X8193500Y1293400D01*
X8181600Y1294400D01*
X8169800Y1293400D01*
X8159400Y1290500D01*
X8151500Y1286600D01*
X8144900Y1280800D01*
X8142300Y1273000D01*
X8144900Y1265200D01*
X8151500Y1259400D01*
X8159400Y1255500D01*
X8169800Y1252600D01*
X8181600Y1251600D01*
X8193500Y1252600D01*
X8203900Y1255500D01*
X8211800Y1259400D01*
X8218400Y1265200D01*
X8221000Y1273000D01*
G01X8613000Y3092400D02*
Y3803600D01*
X8867000D01*
Y3092400D01*
X8613000D01*
G01X8469500Y4740600D02*
X8378500D01*
X8359400Y4734200D01*
X8346700Y4721300D01*
X8342500Y4705300D01*
X8346700Y4689200D01*
X8359400Y4676300D01*
X8378500Y4669900D01*
X8469500D01*
G01X8342500Y4556400D02*
X8469500D01*
X8378500Y4616000D01*
Y4535500D01*
G01X9627000Y2873000D02*
X9373000D01*
Y3381000D01*
X9627000D01*
Y2873000D01*
G01X9344600Y2870000D02*
X9352400Y2874900D01*
X9357700Y2880700D01*
X9360300Y2887600D01*
X9357700Y2895300D01*
X9352400Y2901200D01*
X9344600Y2907000D01*
X9334100Y2909000D01*
X9281600D01*
G01X9294700Y2949700D02*
X9286800Y2955500D01*
X9282900Y2962400D01*
X9281600Y2970100D01*
X9284200Y2979900D01*
X9290800Y2986700D01*
X9298700Y2988600D01*
X9306500Y2987700D01*
X9313100Y2983800D01*
X9326200Y2964300D01*
X9335400Y2955500D01*
X9348500Y2949700D01*
X9360300Y2947800D01*
Y2988600D01*
G01X8850100Y3562300D02*
Y3641000D01*
X8874500D01*
X8882300Y3637100D01*
X8887100Y3631800D01*
X8889100Y3621300D01*
X8887100Y3610800D01*
X8881300Y3604300D01*
X8874500Y3600300D01*
X8850100D01*
G01X8874500D02*
X8889100Y3562300D01*
G01X8948300D02*
Y3641000D01*
X8936600Y3625300D01*
G01Y3562300D02*
X8960000D01*
G01X9027000D02*
Y3641000D01*
X9015300Y3625300D01*
G01Y3562300D02*
X9038700D01*
M02*
