G04 ================== begin FILE IDENTIFICATION RECORD ==================*
G04 Layout Name:  C:/Users/user/Desktop/work/DA_CONVERTOR/allegro/DA_CONVERTER.brd*
G04 Film Name:    solderB*
G04 File Format:  Gerber RS274X*
G04 File Origin:  Cadence Allegro 17.2-P019*
G04 Origin Date:  Wed Jul 31 17:04:23 2019*
G04 *
G04 Layer:  VIA CLASS/SOLDERMASK_BOTTOM*
G04 Layer:  PIN/SOLDERMASK_BOTTOM*
G04 Layer:  PACKAGE GEOMETRY/SOLDERMASK_BOTTOM*
G04 Layer:  BOARD GEOMETRY/SOLDERMASK_BOTTOM*
G04 *
G04 Offset:    (0.000 0.000)*
G04 Mirror:    No*
G04 Mode:      Positive*
G04 Rotation:  0*
G04 FullContactRelief:  No*
G04 UndefLineWidth:     0.000*
G04 ================== end FILE IDENTIFICATION RECORD ====================*
%FSLAX25Y25*MOMM*%
%IR0*IPPOS*OFA0.00000B0.00000*MIA0B0*SFA1.00000B1.00000*%
%ADD12C,2.032*%
%ADD14R,2.032X2.032*%
%ADD11C,1.905*%
%ADD10C,3.683*%
%ADD13R,1.905X1.905*%
%LPD*%
G75*
G54D10*
X500000Y500000D03*
Y6500000D03*
X9500000Y500000D03*
Y6500000D03*
G54D11*
X500000Y3246000D03*
Y2992000D03*
Y2738000D03*
Y3500000D03*
X1800000Y5274000D03*
Y5020000D03*
X2560000Y1458000D03*
Y1712000D03*
Y1966000D03*
X2580000Y3466000D03*
Y3212000D03*
Y2958000D03*
X2560000Y4498000D03*
Y4752000D03*
Y5006000D03*
X3322000Y1458000D03*
Y1712000D03*
Y1966000D03*
Y2220000D03*
X3342000Y3466000D03*
Y3212000D03*
Y2958000D03*
Y3720000D03*
X3322000Y4498000D03*
Y4752000D03*
Y5006000D03*
Y5260000D03*
X7136000Y4958000D03*
Y5720000D03*
X7390000Y4958000D03*
X7644000D03*
X7898000D03*
X7390000Y5720000D03*
X7644000D03*
X7898000D03*
X8152000Y4958000D03*
X8406000D03*
X8660000D03*
X8152000Y5720000D03*
X8406000D03*
X9500000Y3254000D03*
Y3000000D03*
G54D12*
X1720000Y1320000D03*
Y2336000D03*
X1740000Y2980000D03*
Y3996000D03*
X2500000Y5780000D03*
X4080000Y4780000D03*
X3516000Y5780000D03*
X4080000Y5796000D03*
X4700000Y1324000D03*
Y2340000D03*
Y2924000D03*
Y3940000D03*
X4720000Y4764000D03*
Y5780000D03*
X5720000Y1480000D03*
X5724000Y2080000D03*
X5360000Y2900000D03*
Y3916000D03*
Y4760000D03*
Y5776000D03*
X5960000Y2924000D03*
Y3940000D03*
X6020000Y4745600D03*
X6736000Y1480000D03*
X6740000Y2080000D03*
X6580000Y2944000D03*
Y3960000D03*
X6620000Y5774400D03*
X7520000Y1560000D03*
X7400000Y2944000D03*
Y3960000D03*
X8536000Y1560000D03*
X8740000Y2940000D03*
X8080000Y2964000D03*
X8740000Y3956000D03*
X8080000Y3980000D03*
G54D13*
X2560000Y2220000D03*
X2580000Y3720000D03*
X2560000Y5260000D03*
X8660000Y5720000D03*
G54D14*
X6020000Y5660000D03*
X6620000Y4860000D03*
M02*
